# AST/ASF file generated using VICON BodyLanguage
# -----------------------------------------------
:version 1.10
:name VICON
:units
  mass 1.0
  length 0.45
  angle deg
:documentation
   .ast/.asf automatically generated from VICON data using
   VICON BodyBuilder and BodyLanguage model FoxedUp or BRILLIANT.MOD
:root
   order TX TY TZ RX RY RZ
   axis XYZ
   position 0 0 0  
   orientation 0 0 0 
:bonedata
  begin
     id 1 
     name lhipjoint
     direction 0.561001 -0.76473 0.316963 
     length 2.4722 
     axis 0 0 0  XYZ
  end
  begin
     id 2 
     name lfemur
     direction 0.34202 -0.939693 0  
     length 7.59403  
     axis 0 0 20  XYZ
    dof rx ry rz
    limits (-160.0 20.0)
           (-70.0 70.0)
           (-60.0 70.0)
  end
  begin
     id 3 
     name ltibia
     direction 0.34202 -0.939693 0   
     length 7.89655   
     axis 0 0 20   XYZ
    dof rx
    limits (-10.0 170.0)
  end
  begin
     id 4 
     name lfoot
     direction 0.061296 -0.168409 0.98381   
     length 2.73287   
     axis -90 7.62852e-016 20   XYZ
    dof rx rz
    limits (-45.0 90.0)
           (-70.0 20.0)
  end
  begin
     id 5 
     name ltoes
     direction 1.53547e-011 -4.21984e-011 1   
     length 1.37057   
     axis -90 7.62852e-016 20   XYZ
    dof rx
    limits (-90.0 20.0)
  end
  begin
     id 6 
     name rhipjoint
     direction -0.559611 -0.765599 0.317323   
     length 2.46939  
     axis 0 0 0  XYZ 
  end
  begin
     id 7 
     name rfemur
     direction -0.34202 -0.939693 0   
     length 7.53712   
     axis 0 0 -20   XYZ
    dof rx ry rz
    limits (-160.0 20.0)
           (-70.0 70.0)
           (-70.0 60.0)
  end
  begin
     id 8 
     name rtibia
     direction -0.34202 -0.939693 0   
     length 8.12549   
     axis 0 0 -20   XYZ
    dof rx
    limits (-10.0 170.0)
 end
 begin
     id 9 
     name rfoot
     direction -0.066984 -0.184037 0.980634   
     length 2.67541  
     axis -90 -7.62852e-016 -20   XYZ
    dof rx rz
    limits (-45.0 90.0)
           (-20.0 70.0)
  end
  begin
     id 10 
     name rtoes
     direction -1.53549e-011 -4.21786e-011 1   
     length 1.34085   
     axis -90 -7.62852e-016 -20   XYZ
    dof rx
    limits (-90.0 20.0)
  end
  begin
     id 11 
     name lowerback
     direction -0.0522728 0.992594 -0.109658   
     length 2.05633   
     axis 0 0 0   XYZ
    dof rx ry rz
    limits (-20.0 45.0)
           (-30.0 30.0)
           (-30.0 30.0)
  end
  begin
     id 12 
     name upperback
     direction 0.00589338 0.999977 0.00335704   
     length 2.05845   
     axis 0 0 0   XYZ
    dof rx ry rz
    limits (-20.0 45.0)
           (-30.0 30.0)
           (-30.0 30.0)
  end
  begin
     id 13 
     name thorax
     direction 0.0292928 0.998059 0.0549487   
     length 2.09281   
     axis 0 0 0   XYZ
    dof rx ry rz
    limits (-20.0 45.0)
           (-30.0 30.0)
           (-30.0 30.0)
  end
  begin
     id 14 
     name lowerneck
     direction 0.0356368 0.980775 0.191858   
     length 1.84767   
     axis 0 0 0   XYZ
    dof rx ry rz
    limits (-20.0 45.0)
           (-30.0 30.0)
           (-30.0 30.0)
  end
  begin
     id 15 
     name upperneck
     direction -0.0227605 0.98931 -0.14404   
     length 1.89582   
     axis 0 0 0   XYZ
    dof rx ry rz
    limits (-20.0 45.0)
           (-30.0 30.0)
           (-30.0 30.0)
  end
  begin
     id 16
     name head
     direction -0.00932985 0.997511 -0.0698904  
     length 1.90213  
     axis 0 0 0   XYZ
    dof rx ry rz
    limits (-20.0 45.0)
           (-30.0 30.0)
           (-30.0 30.0)
  end
  begin
     id 17 
     name lclavicle
     direction 0.873442 0.479511 0.0846686  
     length 3.41193  
     axis 0 0 0   XYZ
    dof ry rz
    limits (-20.0 10.0)
           (0.0 20.0)
  end
  begin
     id 18 
     name lhumerus
     direction 1 -4.4897e-011 -5.62117e-018   
     length 5.59864   
     axis 180 -30 -90   XYZ
    dof rx ry rz
    limits (-60.0 90.0)
           (-90.0 90.0)
           (-90.0 90.0)
  end
  begin
     id 19
     name lradius
     direction 1 -4.48966e-011 -6.26295e-027   
     length 3.59542   
     axis 180 -30 -90   XYZ
    dof rx
    limits (-10.0 170.0)
  end
  begin
     id 20
     name lwrist
     direction 1 -4.48947e-011 -1.74096e-026   
     length 1.79771   
     axis 1.04567e-014 90 90   XYZ
    dof ry
    limits (-180.0 0.0)
 end
  begin
     id 21 
     name lhand
     direction 1 -4.49085e-011 -3.48469e-026   
     length 0.572014   
     axis 2.22196e-014 90 90   XYZ
    dof rx rz
    limits (-90.0 90.0)
           (-45.0 45.0)
  end
  begin
     id 22 
     name lfingers
     direction 1 -4.48884e-011 -6.96135e-026   
     length 0.461173   
     axis 4.44383e-014 90 90   XYZ
    dof rx
    limits (0.0 90.0)
  end
  begin
     id 23
     name lthumb
     direction 0.707107 -6.34976e-011 0.707107   
     length 0.662154   
     axis -90 45 -5.4397e-014   XYZ
    dof rx rz
    limits (-45.0 45.0)
           (-45.0 45.0)
  end
  begin
     id 24 
     name rclavicle
     direction -0.890242 0.443271 0.104786   
     length 3.46753  
     axis 0 0 0   XYZ 
    dof ry rz
    limits (-10.0 20.0)
           (-20.0 0.0)
  end
  begin
     id 25 
     name rhumerus
     direction -1 -4.48963e-011 -5.41723e-018  
     length 5.8094   
     axis 180 30 90   XYZ
    dof rx ry rz
    limits (-90.0 60.0)
           (-90.0 90.0)
           (-90.0 90.0)
  end
  begin
     id 26 
     name rradius
     direction -1 -4.48958e-011 -6.51059e-027   
     length 3.66953   
     axis 180 30 90   XYZ
    dof rx
    limits (-10.0 170.0)
  end
  begin
     id 27 
     name rwrist
     direction -1 -4.48975e-011 -1.74124e-026   
     length 1.83476   
     axis 1.04567e-014 -90 -90   XYZ
    dof ry
    limits (-180.0 0.0)
  end
  begin
     id 28
     name rhand
     direction -1 -4.49013e-011 -3.48326e-026   
     length 0.57843   
     axis 2.22196e-014 -90 -90   XYZ
    dof rx rz
    limits (-90.0 90.0)
           (-45.0 45.0)
  end
  begin
     id 29
     name rfingers
     direction -1 -4.49023e-011 -6.9669e-026   
     length 0.466345   
     axis 4.44383e-014 -90 -90   XYZ
    dof rx
    limits (0.0 90.0)
  end
  begin
     id 30
     name rthumb
     direction -0.707107 -6.34926e-011 0.707107   
     length 0.669581   
     axis -90 -45 5.4397e-014   XYZ
    dof rx rz
    limits (-45.0 45.0)
           (-45.0 45.0)
  end
:hierarchy
  begin
    root lhipjoint rhipjoint lowerback
    lhipjoint lfemur
    lfemur ltibia
    ltibia lfoot
    lfoot ltoes
    rhipjoint rfemur
    rfemur rtibia
    rtibia rfoot
    rfoot rtoes
    lowerback upperback
    upperback thorax
    thorax lowerneck lclavicle rclavicle
    lowerneck upperneck
    upperneck head
    lclavicle lhumerus
    lhumerus lradius
    lradius lwrist
    lwrist lhand lthumb
    lhand lfingers
    rclavicle rhumerus
    rhumerus rradius
    rradius rwrist
    rwrist rhand rthumb
    rhand rfingers
  end

#!OML:ASF H:\SkateBoarding\Project 1\Capture day 1\Session 1\Skater.ASF
:FULLY-SPECIFIED
:DEGREES
459
root -2.37219 19.7463 44.1266 -8.0214 61.2938 -9.98631
lowerback 3.10359 -2.13975 -5.53119
upperback -2.40722 -3.15844 -1.33122
thorax -4.01178 -1.4207 1.91653
lowerneck -16.678 -4.23507 -2.27608
upperneck 32.0375 -5.23874 0.429976
head 13.7154 -2.35878 -0.267611
rclavicle 2.72335e-014 1.90833e-014
rhumerus -36.0224 -6.74161 -91.9028
rradius 25.2756
rwrist 4.06944
rhand -25.044 -6.93346
rfingers 7.12502
rthumb 1.46911 -36.9081
lclavicle 2.72335e-014 1.90833e-014
lhumerus -37.0841 8.59659 79.7997
lradius 23.3549
lwrist 8.30076
lhand -22.2833 14.3619
lfingers 7.12502
lthumb 4.13523 44.3015
rfemur -14.37 -4.49266 23.6913
rtibia 33.8234
rfoot -36.32 -8.82825
rtoes -5.43877
lfemur -2.72019 -3.35204 -14.5816
ltibia 33.5636
lfoot -42.8767 8.10592
ltoes -11.6179
460
root -2.37623 19.7423 44.4209 -7.85075 60.7436 -9.73691
lowerback 3.00489 -2.08204 -5.55914
upperback -2.43374 -3.07733 -1.35813
thorax -3.98947 -1.38002 1.89603
lowerneck -16.7371 -4.2188 -2.24646
upperneck 32.2385 -5.23331 0.453367
head 13.8157 -2.34591 -0.266121
rclavicle -2.18663e-015 -3.02153e-014
rhumerus -36.1136 -5.72988 -92.512
rradius 25.6785
rwrist 3.55231
rhand -24.9158 -6.81682
rfingers 7.12502
rthumb 1.59292 -36.7906
lclavicle -2.18663e-015 -3.02153e-014
lhumerus -38.3675 8.3678 79.1016
lradius 23.9719
lwrist 9.98203
lhand -21.3657 13.6963
lfingers 7.12502
lthumb 5.02121 43.6168
rfemur -14.312 -4.37633 23.7553
rtibia 33.8887
rfoot -35.8072 -9.09444
rtoes -6.70789
lfemur -2.29502 -3.21993 -14.6182
ltibia 33.2667
lfoot -43.2011 8.24045
ltoes -11.3904
461
root -2.3797 19.7381 44.7146 -7.66788 60.1719 -9.48102
lowerback 2.89301 -2.02355 -5.58533
upperback -2.46488 -2.99418 -1.384
thorax -3.96467 -1.33834 1.87524
lowerneck -16.7864 -4.20083 -2.21647
upperneck 32.4354 -5.22337 0.46969
head 13.9122 -2.33213 -0.266411
rclavicle 1.2921e-015 7.95139e-015
rhumerus -36.2245 -4.64957 -93.1343
rradius 26.1444
rwrist 2.93892
rhand -24.8035 -6.71294
rfingers 7.12502
rthumb 1.70132 -36.6859
lclavicle 1.2921e-015 7.95139e-015
lhumerus -39.6589 8.0462 78.4799
lradius 24.6189
lwrist 11.7831
lhand -20.2015 12.9983
lfingers 7.12502
lthumb 6.14531 42.8891
rfemur -14.2576 -4.25099 23.8203
rtibia 33.9563
rfoot -35.2789 -9.36022
rtoes -8.07091
lfemur -1.86238 -3.07626 -14.6588
ltibia 32.9587
lfoot -43.5429 8.37663
ltoes -11.1601
462
root -2.38256 19.7337 45.0077 -7.47133 59.589 -9.21812
lowerback 2.76851 -1.97096 -5.61634
upperback -2.50117 -2.91814 -1.40403
thorax -3.93704 -1.29995 1.86333
lowerneck -16.8283 -4.17703 -2.18514
upperneck 32.6289 -5.20072 0.472236
head 14.0054 -2.31472 -0.270023
rclavicle 6.20208e-014 2.22639e-014
rhumerus -36.3509 -3.51458 -93.7553
rradius 26.6569
rwrist 2.25459
rhand -24.7259 -6.64038
rfingers 7.12502
rthumb 1.77634 -36.6127
lclavicle 6.20208e-014 2.22639e-014
lhumerus -40.9507 7.66561 77.9332
lradius 25.2736
lwrist 13.6031
lhand -18.8543 12.3588
lfingers 7.12502
lthumb 7.44577 42.2077
rfemur -14.207 -4.12241 23.8814
rtibia 34.0249
rfoot -34.8446 -9.40508
rtoes -8.90249
lfemur -1.42649 -2.93214 -14.7084
ltibia 32.6415
lfoot -43.9033 8.51723
ltoes -10.9312
463
root -2.3849 19.7291 45.3003 -7.2663 59.0018 -8.95306
lowerback 2.6327 -1.92442 -5.64915
upperback -2.54202 -2.84938 -1.42157
thorax -3.90706 -1.26506 1.85521
lowerneck -16.8644 -4.14865 -2.14506
upperneck 32.8205 -5.16918 0.460001
head 14.096 -2.29454 -0.279356
rclavicle 6.44062e-014 1.27222e-014
rhumerus -36.4904 -2.36981 -94.3618
rradius 27.2002
rwrist 1.5316
rhand -24.6923 -6.60147
rfingers 7.12502
rthumb 1.80873 -36.5736
lclavicle 6.44062e-014 1.27222e-014
lhumerus -42.2375 7.26288 77.4397
lradius 25.9124
lwrist 15.3197
lhand -17.3992 11.8287
lfingers 7.12502
lthumb 8.85013 41.6231
rfemur -14.1582 -3.98718 23.9393
rtibia 34.094
rfoot -34.4198 -9.43373
rtoes -9.75269
lfemur -0.986667 -2.80148 -14.7678
ltibia 32.3126
lfoot -44.2869 8.65834
ltoes -10.6898
464
root -2.38683 19.724 45.5922 -7.05679 58.4173 -8.69126
lowerback 2.48551 -1.88691 -5.68148
upperback -2.58666 -2.79169 -1.43523
thorax -3.87363 -1.23564 1.85123
lowerneck -16.8996 -4.11418 -2.10291
upperneck 33.0125 -5.1259 0.437982
head 14.1864 -2.27045 -0.290959
rclavicle -1.12512e-013 -1.43125e-014
rhumerus -36.6351 -1.24351 -94.9392
rradius 27.7565
rwrist 0.802215
rhand -24.7053 -6.59435
rfingers 7.12502
rthumb 1.79622 -36.5665
lclavicle -1.12512e-013 -1.43125e-014
lhumerus -43.5065 6.87631 76.9866
lradius 26.5049
lwrist 16.8181
lhand -15.9264 11.4174
lfingers 7.12502
lthumb 10.2712 41.1466
rfemur -14.1121 -3.86241 23.9984
rtibia 34.1624
rfoot -34.0439 -9.35509
rtoes -10.3542
lfemur -0.547292 -2.69835 -14.8381
ltibia 31.9744
lfoot -44.6995 8.79761
ltoes -10.4245
465
root -2.38834 19.719 45.8834 -6.83944 57.8449 -8.43231
lowerback 2.32711 -1.86129 -5.71603
upperback -2.63693 -2.74906 -1.44471
thorax -3.83837 -1.21351 1.8534
lowerneck -16.9335 -4.07484 -2.05857
upperneck 33.2065 -5.07234 0.405263
head 14.2774 -2.24318 -0.305498
rclavicle -4.99943e-014 2.06736e-014
rhumerus -36.7825 -0.154263 -95.4805
rradius 28.3128
rwrist 0.081243
rhand -24.7586 -6.60985
rfingers 7.12502
rthumb 1.74473 -36.5825
lclavicle -4.99943e-014 2.06736e-014
lhumerus -44.7568 6.4906 76.5871
lradius 27.0462
lwrist 18.1146
lhand -14.5676 11.1447
lfingers 7.12502
lthumb 11.5818 40.8047
rfemur -14.0723 -3.72497 24.0528
rtibia 34.2292
rfoot -33.8047 -9.0391
rtoes -10.2743
lfemur -0.114263 -2.63347 -14.9225
ltibia 31.6269
lfoot -45.139 8.93532
ltoes -10.1274
466
root -2.38962 19.7137 46.1741 -6.6089 57.2912 -8.17063
lowerback 2.15678 -1.84653 -5.7551
upperback -2.69293 -2.72022 -1.45391
thorax -3.80116 -1.198 1.8588
lowerneck -16.9604 -4.0323 -2.00505
upperneck 33.3984 -5.01293 0.360852
head 14.3656 -2.214 -0.325177
rclavicle 2.85256e-014 6.36111e-015
rhumerus -36.925 0.837427 -95.9638
rradius 28.8518
rwrist -0.581991
rhand -24.8375 -6.63081
rfingers 7.12502
rthumb 1.66851 -36.604
lclavicle 2.85256e-014 6.36111e-015
lhumerus -45.978 6.14482 76.2114
lradius 27.5123
lwrist 19.1267
lhand -13.3496 10.9587
lfingers 7.12502
lthumb 12.7561 40.549
rfemur -14.0398 -3.59235 24.101
rtibia 34.293
rfoot -33.6714 -8.52453
rtoes -9.61204
lfemur 0.308162 -2.61659 -15.0272
ltibia 31.2721
lfoot -45.6038 9.07999
ltoes -9.82254
467
root -2.39088 19.7081 46.4642 -6.37224 56.7624 -7.91477
lowerback 1.98668 -1.84515 -5.789
upperback -2.76052 -2.70934 -1.465
thorax -3.77519 -1.191 1.86052
lowerneck -16.9812 -3.98678 -1.95112
upperneck 33.5958 -4.94883 0.315674
head 14.4554 -2.18282 -0.344395
rclavicle -8.61732e-014 -3.49861e-014
rhumerus -37.0687 1.73314 -96.3956
rradius 29.3695
rwrist -1.20106
rhand -24.9249 -6.64971
rfingers 7.12502
rthumb 1.58406 -36.6236
lclavicle -8.61732e-014 -3.49861e-014
lhumerus -47.1688 5.84816 75.844
lradius 27.8891
lwrist 19.8487
lhand -12.2969 10.8304
lfingers 7.12502
lthumb 13.7709 40.3547
rfemur -14.0162 -3.4586 24.1475
rtibia 34.3537
rfoot -33.5814 -7.96763
rtoes -8.78462
lfemur 0.717349 -2.65636 -15.1492
ltibia 30.9087
lfoot -46.0942 9.23087
ltoes -9.50389
468
root -2.39226 19.7027 46.7536 -6.12963 56.2634 -7.66419
lowerback 1.81678 -1.85438 -5.81824
upperback -2.83731 -2.71271 -1.47896
thorax -3.75821 -1.19078 1.85752
lowerneck -16.9912 -3.94376 -1.89512
upperneck 33.7931 -4.88855 0.268917
head 14.5432 -2.15331 -0.365075
rclavicle -7.77248e-014 -3.18055e-014
rhumerus -37.2056 2.51478 -96.7691
rradius 29.8586
rwrist -1.77325
rhand -25.0135 -6.66579
rfingers 7.12502
rthumb 1.49856 -36.6403
lclavicle -7.77248e-014 -3.18055e-014
lhumerus -48.3183 5.59004 75.4904
lradius 28.1756
lwrist 20.3061
lhand -11.472 10.7498
lfingers 7.12502
lthumb 14.5658 40.2184
rfemur -14.0043 -3.3158 24.189
rtibia 34.4149
rfoot -33.5267 -7.403
rtoes -7.86953
lfemur 1.10526 -2.74676 -15.2876
ltibia 30.548
lfoot -46.6034 9.38835
ltoes -9.18806
469
root -2.39385 19.6975 47.0422 -5.8847 55.7966 -7.42243
lowerback 1.64767 -1.87476 -5.84557
upperback -2.92239 -2.73109 -1.49132
thorax -3.74924 -1.19762 1.85587
lowerneck -16.992 -3.9031 -1.83999
upperneck 33.99 -4.83013 0.218697
head 14.6292 -2.12527 -0.387199
rclavicle -8.13029e-014 7.95139e-015
rhumerus -37.3343 3.19063 -97.0813
rradius 30.3194
rwrist -2.31006
rhand -25.0816 -6.68851
rfingers 7.12502
rthumb 1.4328 -36.6634
lclavicle -8.13029e-014 7.95139e-015
lhumerus -49.4191 5.41074 75.125
lradius 28.3614
lwrist 20.4875
lhand -10.8043 10.6675
lfingers 7.12502
lthumb 15.209 40.0885
rfemur -14.0027 -3.16825 24.2272
rtibia 34.4717
rfoot -33.4909 -6.86573
rtoes -6.98243
lfemur 1.47869 -2.89283 -15.4417
ltibia 30.1737
lfoot -47.1266 9.56029
ltoes -8.88112
470
root -2.39505 19.6887 47.3321 -5.56214 55.2846 -7.10132
lowerback 1.39434 -1.87752 -5.96796
upperback -2.98101 -2.72061 -1.49021
thorax -3.66266 -1.18978 1.91599
lowerneck -16.9783 -3.86461 -1.77341
upperneck 34.1459 -4.76959 0.142535
head 14.6923 -2.09951 -0.420882
rclavicle 3.53837e-014 1.74931e-014
rhumerus -37.44 3.93872 -97.4101
rradius 30.8071
rwrist -2.77535
rhand -25.199 -6.65557
rfingers 7.12502
rthumb 1.31941 -36.6312
lclavicle 3.53837e-014 1.74931e-014
lhumerus -50.6032 5.15364 74.8386
lradius 28.6997
lwrist 20.8092
lhand -9.9842 10.5535
lfingers 7.12502
lthumb 15.9989 39.9129
rfemur -14.0098 -3.10138 24.2346
rtibia 34.5304
rfoot -33.57 -5.6775
rtoes -4.46741
lfemur 1.86065 -3.00636 -15.6451
ltibia 29.7924
lfoot -47.6371 9.80817
ltoes -8.7598
471
root -2.39682 19.685 47.6195 -5.36536 54.8782 -6.9213
lowerback 1.36365 -1.95052 -5.85835
upperback -3.15318 -2.82028 -1.55009
thorax -3.8249 -1.23505 1.79924
lowerneck -16.9534 -3.79617 -1.76267
upperneck 34.4134 -4.68551 0.178682
head 14.8107 -2.0527 -0.395624
rclavicle -7.7526e-014 1.90833e-014
rhumerus -37.6534 4.39406 -97.7025
rradius 31.2037
rwrist -3.27124
rhand -25.1618 -6.61646
rfingers 7.12502
rthumb 1.35532 -36.5919
lclavicle -7.7526e-014 1.90833e-014
lhumerus -51.698 5.07578 74.3673
lradius 28.6722
lwrist 20.6542
lhand -9.58735 10.4857
lfingers 7.12502
lthumb 16.381 39.8139
rfemur -14.0118 -2.91833 24.2878
rtibia 34.5792
rfoot -33.4614 -5.59798
rtoes -4.53427
lfemur 2.22441 -3.32348 -15.8193
ltibia 29.4027
lfoot -48.2616 9.96638
ltoes -8.31888
472
root -2.39989 19.6821 47.905 -5.13898 54.5255 -6.70971
lowerback 1.20416 -1.96494 -5.88657
upperback -3.23155 -2.83082 -1.55983
thorax -3.81484 -1.23802 1.80048
lowerneck -16.9126 -3.80569 -1.64741
upperneck 34.5761 -4.69671 0.0581601
head 14.8691 -2.05729 -0.468232
rclavicle -7.69297e-014 1.74931e-014
rhumerus -37.7278 4.78683 -97.8356
rradius 31.6053
rwrist -3.86133
rhand -25.2616 -6.76931
rfingers 7.12502
rthumb 1.2589 -36.7453
lclavicle -7.69297e-014 1.74931e-014
lhumerus -52.5696 4.91358 74.126
lradius 28.5922
lwrist 20.3166
lhand -9.4388 10.3945
lfingers 7.12502
lthumb 16.524 39.7109
rfemur -14.0248 -2.67438 24.2975
rtibia 34.6207
rfoot -33.3807 -5.5247
rtoes -4.77032
lfemur 2.54556 -3.54204 -15.9956
ltibia 29.0179
lfoot -48.7506 10.1363
ltoes -7.98622
473
root -2.40275 19.6802 48.1905 -4.97586 54.2 -6.60516
lowerback 0.999465 -2.01345 -5.89588
upperback -3.30347 -2.88095 -1.51436
thorax -3.76746 -1.2618 1.84759
lowerneck -16.9291 -3.79722 -1.63793
upperneck 34.7643 -4.66153 -0.0158784
head 14.958 -2.04873 -0.497154
rclavicle 9.14409e-015 9.54166e-015
rhumerus -37.7581 5.06868 -97.8425
rradius 31.9589
rwrist -4.3069
rhand -25.1518 -6.94603
rfingers 7.12502
rthumb 1.36493 -36.9214
lclavicle 9.14409e-015 9.54166e-015
lhumerus -53.3195 5.39444 73.4592
lradius 28.2458
lwrist 19.2144
lhand -9.15864 10.0954
lfingers 7.12502
lthumb 16.7937 39.3891
rfemur -14.0649 -2.51845 24.3763
rtibia 34.6565
rfoot -33.3283 -5.48448
rtoes -5.16461
lfemur 2.84618 -3.89829 -16.1329
ltibia 28.6147
lfoot -49.3364 10.3273
ltoes -7.7393
